<svg width="102" height="102" viewBox="0 0 102 102" fill="none" xmlns="http://www.w3.org/2000/svg">
<g clip-path="url(#clip0_4_102)">
<path d="M49.601 92.28C71.7697 92.28 89.741 74.3087 89.741 52.14C89.741 29.9713 71.7697 12 49.601 12C27.4323 12 9.461 29.9713 9.461 52.14C9.461 74.3087 27.4323 92.28 49.601 92.28Z" fill="#0B3D91"/>
<path d="M47.231 20.16C47.4795 20.16 47.681 19.9585 47.681 19.71C47.681 19.4615 47.4795 19.26 47.231 19.26C46.9825 19.26 46.781 19.4615 46.781 19.71C46.781 19.9585 46.9825 20.16 47.231 20.16Z" fill="white"/>
<path d="M51.851 20.76C52.0995 20.76 52.301 20.5585 52.301 20.31C52.301 20.0615 52.0995 19.86 51.851 19.86C51.6025 19.86 51.401 20.0615 51.401 20.31C51.401 20.5585 51.6025 20.76 51.851 20.76Z" fill="white"/>
<path d="M57.911 28.92C58.1595 28.92 58.361 28.7185 58.361 28.47C58.361 28.2215 58.1595 28.02 57.911 28.02C57.6625 28.02 57.461 28.2215 57.461 28.47C57.461 28.7185 57.6625 28.92 57.911 28.92Z" fill="white"/>
<path d="M24.671 70.92C24.9195 70.92 25.121 70.7185 25.121 70.47C25.121 70.2215 24.9195 70.02 24.671 70.02C24.4225 70.02 24.221 70.2215 24.221 70.47C24.221 70.7185 24.4225 70.92 24.671 70.92Z" fill="white"/>
<path d="M25.841 74.52C26.0895 74.52 26.291 74.3186 26.291 74.07C26.291 73.8215 26.0895 73.62 25.841 73.62C25.5925 73.62 25.391 73.8215 25.391 74.07C25.391 74.3186 25.5925 74.52 25.841 74.52Z" fill="white"/>
<path d="M20.261 71.347C20.4471 71.347 20.598 71.1961 20.598 71.01C20.598 70.8239 20.4471 70.673 20.261 70.673C20.0749 70.673 19.924 70.8239 19.924 71.01C19.924 71.1961 20.0749 71.347 20.261 71.347Z" fill="white"/>
<path d="M38.561 78.42C38.7477 78.42 38.899 78.2687 38.899 78.082C38.899 77.8954 38.7477 77.744 38.561 77.744C38.3743 77.744 38.223 77.8954 38.223 78.082C38.223 78.2687 38.3743 78.42 38.561 78.42Z" fill="white"/>
<path d="M67.263 72.457C67.4491 72.457 67.6 72.3061 67.6 72.12C67.6 71.9339 67.4491 71.783 67.263 71.783C67.0769 71.783 66.926 71.9339 66.926 72.12C66.926 72.3061 67.0769 72.457 67.263 72.457Z" fill="white"/>
<path d="M75.604 63.398C75.7907 63.398 75.942 63.2467 75.942 63.06C75.942 62.8733 75.7907 62.722 75.604 62.722C75.4173 62.722 75.266 62.8733 75.266 63.06C75.266 63.2467 75.4173 63.398 75.604 63.398Z" fill="white"/>
<path d="M34.721 31.439C34.9071 31.439 35.058 31.2881 35.058 31.102C35.058 30.9159 34.9071 30.765 34.721 30.765C34.5349 30.765 34.384 30.9159 34.384 31.102C34.384 31.2881 34.5349 31.439 34.721 31.439Z" fill="white"/>
<path d="M43.901 24.697C44.0871 24.697 44.238 24.5461 44.238 24.36C44.238 24.1739 44.0871 24.023 43.901 24.023C43.7149 24.023 43.564 24.1739 43.564 24.36C43.564 24.5461 43.7149 24.697 43.901 24.697Z" fill="white"/>
<path d="M42.904 24.037C43.0901 24.037 43.241 23.8861 43.241 23.7C43.241 23.5139 43.0901 23.363 42.904 23.363C42.7179 23.363 42.567 23.5139 42.567 23.7C42.567 23.8861 42.7179 24.037 42.904 24.037Z" fill="white"/>
<path d="M42.004 23.377C42.1901 23.377 42.341 23.2261 42.341 23.04C42.341 22.8539 42.1901 22.703 42.004 22.703C41.8179 22.703 41.667 22.8539 41.667 23.04C41.667 23.2261 41.8179 23.377 42.004 23.377Z" fill="white"/>
<path d="M36.161 33.18C36.3471 33.18 36.498 33.0291 36.498 32.843C36.498 32.6569 36.3471 32.506 36.161 32.506C35.9749 32.506 35.824 32.6569 35.824 32.843C35.824 33.0291 35.9749 33.18 36.161 33.18Z" fill="white"/>
<path d="M49.683 15.637C49.8691 15.637 50.02 15.4861 50.02 15.3C50.02 15.1139 49.8691 14.963 49.683 14.963C49.4969 14.963 49.346 15.1139 49.346 15.3C49.346 15.4861 49.4969 15.637 49.683 15.637Z" fill="white"/>
<path d="M51.904 25.357C52.0901 25.357 52.241 25.2061 52.241 25.02C52.241 24.8339 52.0901 24.683 51.904 24.683C51.7179 24.683 51.567 24.8339 51.567 25.02C51.567 25.2061 51.7179 25.357 51.904 25.357Z" fill="white"/>
<path d="M48.401 23.459C48.5871 23.459 48.738 23.3081 48.738 23.122C48.738 22.9359 48.5871 22.785 48.401 22.785C48.2149 22.785 48.064 22.9359 48.064 23.122C48.064 23.3081 48.2149 23.459 48.401 23.459Z" fill="white"/>
<path d="M42.401 26.04C42.5871 26.04 42.738 25.8891 42.738 25.703C42.738 25.5169 42.5871 25.366 42.401 25.366C42.2149 25.366 42.064 25.5169 42.064 25.703C42.064 25.8891 42.2149 26.04 42.401 26.04Z" fill="white"/>
<path d="M68.861 81.36C69.0471 81.36 69.198 81.2091 69.198 81.023C69.198 80.8369 69.0471 80.686 68.861 80.686C68.6749 80.686 68.524 80.8369 68.524 81.023C68.524 81.2091 68.6749 81.36 68.861 81.36Z" fill="white"/>
<path d="M24.101 73.088C24.2877 73.088 24.439 72.9367 24.439 72.75C24.439 72.5633 24.2877 72.412 24.101 72.412C23.9143 72.412 23.763 72.5633 23.763 72.75C23.763 72.9367 23.9143 73.088 24.101 73.088Z" fill="white"/>
<path d="M47.561 77.438C47.7477 77.438 47.899 77.2867 47.899 77.1C47.899 76.9133 47.7477 76.762 47.561 76.762C47.3743 76.762 47.223 76.9133 47.223 77.1C47.223 77.2867 47.3743 77.438 47.561 77.438Z" fill="white"/>
<path d="M31.083 72.818C31.2697 72.818 31.421 72.6667 31.421 72.48C31.421 72.2933 31.2697 72.142 31.083 72.142C30.8963 72.142 30.745 72.2933 30.745 72.48C30.745 72.6667 30.8963 72.818 31.083 72.818Z" fill="white"/>
<path d="M34.001 77.581C34.1877 77.581 34.339 77.4297 34.339 77.243C34.339 77.0563 34.1877 76.905 34.001 76.905C33.8143 76.905 33.663 77.0563 33.663 77.243C33.663 77.4297 33.8143 77.581 34.001 77.581Z" fill="white"/>
<path d="M55.481 74.58C55.6671 74.58 55.818 74.4291 55.818 74.243C55.818 74.0569 55.6671 73.906 55.481 73.906C55.2949 73.906 55.144 74.0569 55.144 74.243C55.144 74.4291 55.2949 74.58 55.481 74.58Z" fill="white"/>
<path d="M67.323 67.897C67.5091 67.897 67.66 67.7461 67.66 67.56C67.66 67.3739 67.5091 67.223 67.323 67.223C67.1369 67.223 66.986 67.3739 66.986 67.56C66.986 67.7461 67.1369 67.897 67.323 67.897Z" fill="white"/>
<path d="M76.301 71.999C76.4871 71.999 76.638 71.8481 76.638 71.662C76.638 71.4759 76.4871 71.325 76.301 71.325C76.1149 71.325 75.964 71.4759 75.964 71.662C75.964 71.8481 76.1149 71.999 76.301 71.999Z" fill="white"/>
<path d="M79.361 73.957C79.5471 73.957 79.698 73.8061 79.698 73.62C79.698 73.4339 79.5471 73.283 79.361 73.283C79.1749 73.283 79.024 73.4339 79.024 73.62C79.024 73.8061 79.1749 73.957 79.361 73.957Z" fill="white"/>
<path d="M79.864 68.617C80.0501 68.617 80.201 68.4661 80.201 68.28C80.201 68.0939 80.0501 67.943 79.864 67.943C79.6779 67.943 79.527 68.0939 79.527 68.28C79.527 68.4661 79.6779 68.617 79.864 68.617Z" fill="white"/>
<path d="M35.223 61.057C35.4091 61.057 35.56 60.9061 35.56 60.72C35.56 60.5339 35.4091 60.383 35.223 60.383C35.0369 60.383 34.886 60.5339 34.886 60.72C34.886 60.9061 35.0369 61.057 35.223 61.057Z" fill="white"/>
<path d="M35.351 68.91C35.5995 68.91 35.801 68.7085 35.801 68.46C35.801 68.2115 35.5995 68.01 35.351 68.01C35.1025 68.01 34.901 68.2115 34.901 68.46C34.901 68.7085 35.1025 68.91 35.351 68.91Z" fill="white"/>
<path d="M38.051 74.61C38.2995 74.61 38.501 74.4085 38.501 74.16C38.501 73.9115 38.2995 73.71 38.051 73.71C37.8025 73.71 37.601 73.9115 37.601 74.16C37.601 74.4085 37.8025 74.61 38.051 74.61Z" fill="white"/>
<path d="M70.391 68.67C70.6395 68.67 70.841 68.4685 70.841 68.22C70.841 67.9715 70.6395 67.77 70.391 67.77C70.1425 67.77 69.941 67.9715 69.941 68.22C69.941 68.4685 70.1425 68.67 70.391 68.67Z" fill="white"/>
<path d="M82.031 68.01C82.2795 68.01 82.481 67.8085 82.481 67.56C82.481 67.3115 82.2795 67.11 82.031 67.11C81.7825 67.11 81.581 67.3115 81.581 67.56C81.581 67.8085 81.7825 68.01 82.031 68.01Z" fill="white"/>
<path d="M76.271 65.55C76.5195 65.55 76.721 65.3485 76.721 65.1C76.721 64.8515 76.5195 64.65 76.271 64.65C76.0225 64.65 75.821 64.8515 75.821 65.1C75.821 65.3485 76.0225 65.55 76.271 65.55Z" fill="white"/>
<path d="M70.391 65.79C70.6395 65.79 70.841 65.5885 70.841 65.34C70.841 65.0915 70.6395 64.89 70.391 64.89C70.1425 64.89 69.941 65.0915 69.941 65.34C69.941 65.5885 70.1425 65.79 70.391 65.79Z" fill="white"/>
<path d="M58.262 19.428L59.381 19.321L58.264 19.258C58.229 19.042 58.056 18.873 57.838 18.845L57.731 17.731L57.667 18.854C57.465 18.899 57.31 19.068 57.285 19.278L56.141 19.382L57.293 19.444C57.335 19.637 57.491 19.788 57.687 19.824L57.791 20.972L57.852 19.826C58.059 19.791 58.223 19.632 58.262 19.428Z" fill="white"/>
<path d="M39.376 31.886L40.495 31.779L39.378 31.716C39.344 31.5 39.17 31.331 38.952 31.303L38.845 30.189L38.782 31.312C38.579 31.357 38.424 31.526 38.399 31.736L37.255 31.84L38.407 31.902C38.449 32.095 38.605 32.246 38.801 32.282L38.905 33.43L38.967 32.284C39.174 32.25 39.338 32.09 39.376 31.886Z" fill="white"/>
<path d="M81.211 64.824L82.33 64.717L81.213 64.654C81.179 64.438 81.005 64.269 80.787 64.241L80.68 63.127L80.617 64.25C80.415 64.295 80.26 64.464 80.235 64.674L79.091 64.778L80.243 64.84C80.285 65.033 80.441 65.184 80.637 65.22L80.741 66.368L80.803 65.222C81.008 65.188 81.172 65.029 81.211 64.824Z" fill="white"/>
<path d="M35.596 82.046L36.715 81.939L35.598 81.876C35.563 81.66 35.39 81.491 35.172 81.463L35.065 80.35L35.002 81.472C34.799 81.517 34.644 81.686 34.619 81.896L33.475 82L34.627 82.062C34.669 82.255 34.825 82.407 35.021 82.442L35.125 83.59L35.187 82.444C35.393 82.41 35.558 82.25 35.596 82.046Z" fill="white"/>
<path d="M77.656 73.646L78.775 73.539L77.658 73.476C77.624 73.26 77.45 73.091 77.232 73.063L77.125 71.949L77.062 73.071C76.86 73.116 76.705 73.285 76.68 73.495L75.536 73.599L76.688 73.661C76.73 73.854 76.886 74.005 77.082 74.041L77.186 75.189L77.248 74.043C77.453 74.01 77.618 73.85 77.656 73.646Z" fill="white"/>
<path d="M59.12 42.525C54.453 44.339 49.901 45.958 46.06 47.16C38.255 49.604 16.9 56.22 4 64.56L5.08 64.98C12.94 60.54 18.049 59.145 22.96 57.6C28.3 55.92 45.563 51.88 53.38 49.68C56.021 48.937 59.114 47.964 62.39 46.78C61.628 45.717 60.824 44.651 59.978 43.587C59.695 43.228 59.408 42.874 59.12 42.525ZM64.822 50.384C63.692 51.147 62.745 51.756 62.082 52.14C58.242 54.36 39.521 67.14 35.262 70.08C31.003 73.02 19.182 84.18 15.702 87.42L15.582 88.739C26.802 78.659 30.322 76.173 34.782 72.78C40.302 68.58 51.721 60.81 55.602 58.32C59.312 55.94 62.658 53.751 65.661 51.748C65.612 51.666 65.563 51.584 65.514 51.501C65.288 51.13 65.057 50.758 64.822 50.384ZM82.361 31.86C76.895 35.064 68.28 38.931 59.922 42.212C60.122 42.457 60.321 42.704 60.519 42.953C61.453 44.129 62.334 45.313 63.163 46.498C69.733 44.078 76.942 40.83 82.662 36.899C79.937 39.481 70.928 46.214 65.435 49.967C65.718 50.428 65.992 50.889 66.257 51.348C74.579 45.779 80.179 41.68 83.442 38.939C87.942 35.159 98.202 26.699 102.102 15.359C95.261 24.06 87.173 29.039 82.361 31.86Z" fill="#FC3D21"/>
<path d="M44.436 62.079C43.551 60.965 42.327 59.473 41.408 58.316C40.179 56.769 39.042 55.206 38 53.645C37.66 53.73 37.321 53.815 36.982 53.9C38.24 55.863 39.637 57.823 41.159 59.739C42.271 61.139 43.282 62.266 43.8 62.967C43.905 63.109 44.113 63.423 44.394 63.841C44.718 63.621 45.045 63.399 45.375 63.175C45.056 62.828 44.741 62.463 44.436 62.079ZM50.896 67.943C50.169 67.255 48.406 66.106 46.571 64.382C46.166 64.66 45.757 64.942 45.347 65.226C46.532 66.896 48.146 68.947 49.41 69.545C51.314 70.447 51.827 68.825 50.896 67.943ZM60.519 42.953C50.027 29.747 37.21 22.492 31.684 26.883C27.392 30.293 29.154 40.259 35.07 50.728C35.376 50.623 35.679 50.52 35.979 50.418C30.008 40.218 28.374 30.739 32.422 27.522C37.509 23.48 49.792 30.763 59.98 43.586C62.089 46.24 63.943 48.904 65.513 51.501C71.525 61.451 73.37 70.449 69.216 74.122C67.945 75.246 64.061 75.687 58.973 73.397C58.902 73.486 59.016 73.727 59.105 73.786C63.497 75.552 67.704 76.225 69.828 74.538C74.932 70.482 71.011 56.159 60.519 42.953Z" fill="white"/>
<path d="M15.521 44.52H22.241L27.881 54.09C27.881 54.09 27.881 47.16 27.881 46.62C27.881 45.78 26.816 44.685 26.441 44.52C26.891 44.52 30.821 44.52 31.091 44.52C30.806 44.595 29.891 45.705 29.891 46.62C29.891 47.07 29.891 57.12 29.891 57.6C29.891 58.275 30.866 59.205 31.331 59.565H24.851L19.121 49.95C19.121 49.95 19.121 57.12 19.121 57.51C19.121 58.26 19.856 58.98 20.621 59.595H15.671C16.376 59.295 17.051 58.35 17.111 57.6C17.171 56.85 17.111 47.175 17.111 46.755C17.111 45.84 16.226 45.09 15.521 44.52Z" fill="white"/>
<path d="M76.991 59.565H85.931C85.436 59.445 84.881 58.86 84.581 58.08C84.281 57.3 79.541 44.52 79.541 44.52H76.142C75.178 45.214 74.145 45.946 73.042 46.717C73.039 46.745 73.036 46.773 73.031 46.8C72.883 47.7 70.223 57.334 70.061 57.81C69.836 58.47 68.681 59.205 68.216 59.595H73.031C72.551 59.055 72.161 58.53 72.251 57.93C72.341 57.33 72.611 56.13 72.611 56.13H77.591C77.816 56.73 77.984 57.269 78.071 57.78C78.176 58.395 77.546 59.085 76.991 59.565ZM73.061 54.21L74.741 48.72L76.961 54.21H73.061ZM72.304 45.068C72.551 44.886 72.799 44.703 73.046 44.52H71.741C71.871 44.64 72.086 44.829 72.304 45.068Z" fill="white"/>
<path d="M38.111 57.93C38.201 57.33 38.471 56.13 38.471 56.13H43.451C43.676 56.73 43.844 57.269 43.931 57.78C44.036 58.395 43.406 59.085 42.851 59.565H50.722C50.886 59.455 51.049 59.345 51.212 59.236C50.907 58.966 50.626 58.561 50.441 58.08C50.141 57.3 45.401 44.52 45.401 44.52H37.601C37.976 44.865 39.056 45.795 38.891 46.8C38.744 47.7 36.083 57.334 35.921 57.81C35.696 58.47 34.541 59.205 34.076 59.595H38.891C38.411 59.055 38.021 58.53 38.111 57.93ZM40.601 48.72L42.821 54.21H38.921L40.601 48.72Z" fill="white"/>
<path d="M65.3 51.988C63.832 52.966 62.283 53.987 60.651 55.053C61.383 55.408 61.966 55.854 62.022 56.43C62.126 57.512 59.952 58.035 57.987 57.81C57.594 57.765 57.208 57.662 56.84 57.524C56.432 57.787 56.02 58.052 55.602 58.32C55.177 58.593 54.661 58.929 54.072 59.317V60.87C54.462 60.105 55.315 59.42 55.977 59.385C56.262 59.37 57.252 60.285 61.332 60.06C63.312 59.951 67.137 57.84 67.077 55.41C67.041 53.974 66.291 52.854 65.3 51.988ZM54.071 55.74V57.322C54.432 57.081 54.788 56.844 55.137 56.613C54.588 56.231 54.199 55.874 54.071 55.74ZM63.905 50.995C63.525 50.77 63.14 50.573 62.771 50.399C60.851 49.499 58.841 49.334 58.421 48.119C58.125 47.262 58.961 46.469 61.001 46.499C63.041 46.529 64.931 47.744 65.441 48.179V44.309C65.291 44.459 64.633 45.214 64.031 45.089C62.876 44.849 60.911 44.536 58.661 44.549C56.081 44.564 53.861 46.558 53.786 49.079C53.681 52.604 56.501 53.564 58.091 54.119C58.255 54.176 58.442 54.237 58.645 54.302C60.17 53.31 61.376 52.546 62.082 52.139C62.556 51.866 63.177 51.474 63.905 50.995Z" fill="white"/>
</g>
<defs>
<clipPath id="clip0_4_102">
<rect width="102" height="102" fill="white"/>
</clipPath>
</defs>
</svg>
